<?xml version="1.0" encoding="UTF-8"?>
<svg xmlns="http://www.w3.org/2000/svg" xmlns:xlink="http://www.w3.org/1999/xlink" width="25pt" height="25pt" viewBox="0 0 25 25" version="1.1">
<g id="surface15168559">
<path style=" stroke:none;fill-rule:nonzero;fill:rgb(100%,100%,100%);fill-opacity:1;" d="M 12.5 0.527344 C 12.390625 0.527344 12.28125 0.558594 12.191406 0.628906 L 0.691406 9.605469 C 0.476562 9.777344 0.433594 10.089844 0.605469 10.308594 C 0.777344 10.523438 1.089844 10.566406 1.308594 10.394531 L 2 9.855469 L 2 23 C 2 23.273438 2.226562 23.5 2.5 23.5 L 9.5 23.5 L 9.5 14.5 L 15.5 14.5 L 15.5 23.5 L 22.5 23.5 C 22.773438 23.5 23 23.273438 23 23 L 23 9.855469 L 23.691406 10.394531 C 23.785156 10.464844 23.890625 10.5 24 10.5 C 24.148438 10.5 24.292969 10.433594 24.394531 10.308594 C 24.566406 10.089844 24.523438 9.777344 24.308594 9.605469 L 12.808594 0.628906 C 12.71875 0.558594 12.609375 0.527344 12.5 0.527344 Z M 17.5 2.5 L 17.5 3.027344 L 20.5 5.367188 L 20.5 2.5 Z M 17.5 2.5 "/>
</g>
</svg>
