<svg fill="#000000" xmlns="http://www.w3.org/2000/svg"  viewBox="0 0 30 30" width="50px" height="50px"><path d="M14 10A4 4 0 1 0 14 18A4 4 0 1 0 14 10Z"/><path d="M24,4H6C4.895,4,4,4.895,4,6v18c0,1.105,0.895,2,2,2h18c1.105,0,2-0.895,2-2V6C26,4.895,25.105,4,24,4z M21.707,21.707C21.512,21.902,21.256,22,21,22s-0.512-0.098-0.707-0.293l-2.822-2.822C16.49,19.584,15.294,20,14,20c-3.309,0-6-2.691-6-6s2.691-6,6-6s6,2.691,6,6c0,1.294-0.416,2.49-1.115,3.471l2.822,2.822C22.098,20.684,22.098,21.316,21.707,21.707z"/></svg>