<svg width="30" height="29" viewBox="0 0 30 29" fill="none" xmlns="http://www.w3.org/2000/svg">
<g clip-path="url(#clip0)">
<path d="M14.7862 13.9786C16.7715 13.9786 18.4904 13.3021 19.8953 11.9675C21.2997 10.6331 22.012 9.00035 22.012 7.11407C22.012 5.22845 21.3 3.5955 19.8951 2.26065C18.4902 0.926449 16.7713 0.25 14.7862 0.25C12.8007 0.25 11.082 0.926449 9.67735 2.26086C8.27271 3.59528 7.56042 5.22824 7.56042 7.11407C7.56042 9.00035 8.27271 10.6333 9.67735 11.9677C11.0825 13.3019 12.8014 13.9786 14.7862 13.9786ZM10.9206 3.44177C11.9984 2.41785 13.2628 1.92014 14.7862 1.92014C16.3094 1.92014 17.574 2.41785 18.652 3.44177C19.7298 4.4659 20.254 5.66724 20.254 7.11407C20.254 8.56134 19.7298 9.76247 18.652 10.7866C17.574 11.8107 16.3094 12.3084 14.7862 12.3084C13.2632 12.3084 11.9989 11.8105 10.9206 10.7866C9.84261 9.76268 9.31847 8.56134 9.31847 7.11407C9.31847 5.66724 9.84261 4.4659 10.9206 3.44177Z" fill="white"/>
<path d="M27.4294 22.1651C27.3889 21.6098 27.307 21.004 27.1864 20.3643C27.0646 19.7198 26.9078 19.1106 26.7201 18.5537C26.526 17.9782 26.2626 17.4098 25.9364 16.8651C25.5984 16.2998 25.201 15.8075 24.7552 15.4024C24.2889 14.9786 23.7181 14.6379 23.058 14.3894C22.4002 14.1421 21.6712 14.0169 20.8914 14.0169C20.5852 14.0169 20.289 14.1363 19.717 14.49C19.365 14.7081 18.9532 14.9603 18.4937 15.2393C18.1007 15.4772 17.5683 15.7001 16.9107 15.9018C16.2691 16.0991 15.6178 16.1991 14.9746 16.1991C14.3319 16.1991 13.6805 16.0991 13.0385 15.9018C12.3816 15.7003 11.849 15.4774 11.4567 15.2395C11.0014 14.9632 10.5894 14.7109 10.2322 14.4898C9.66064 14.136 9.36447 14.0167 9.05823 14.0167C8.2782 14.0167 7.54944 14.1421 6.89186 14.3896C6.23222 14.6377 5.66116 14.9784 5.19447 15.4026C4.74861 15.8079 4.35127 16.3 4.01344 16.8651C3.68774 17.4098 3.42407 17.9779 3.22998 18.5539C3.04253 19.1108 2.88574 19.7198 2.76398 20.3643C2.64313 21.0032 2.56142 21.6092 2.5209 22.1658C2.48108 22.71 2.46094 23.2765 2.46094 23.8488C2.46094 25.3365 2.95876 26.5409 3.94043 27.4291C4.90997 28.3056 6.19263 28.75 7.75291 28.75H22.1981C23.7579 28.75 25.0406 28.3056 26.0104 27.4291C26.9923 26.5415 27.4901 25.3367 27.4901 23.8485C27.4899 23.2743 27.4695 22.7079 27.4294 22.1651ZM24.7982 26.2191C24.1576 26.7983 23.307 27.0799 22.1979 27.0799H7.75291C6.64352 27.0799 5.793 26.7983 5.15259 26.2193C4.52431 25.6511 4.21898 24.8755 4.21898 23.8488C4.21898 23.3147 4.23752 22.7874 4.2746 22.2813C4.31076 21.7846 4.38469 21.2391 4.49432 20.6594C4.60258 20.0869 4.74037 19.5496 4.90425 19.0632C5.06149 18.5968 5.27596 18.1349 5.54192 17.6901C5.79575 17.2661 6.0878 16.9023 6.41006 16.6092C6.7115 16.335 7.09145 16.1106 7.53914 15.9423C7.95319 15.7866 8.4185 15.7014 8.92365 15.6885C8.98521 15.7196 9.09485 15.779 9.27246 15.889C9.63387 16.1128 10.0504 16.368 10.5109 16.6474C11.03 16.9619 11.6988 17.2458 12.4979 17.4909C13.3147 17.7418 14.1479 17.8692 14.9748 17.8692C15.8018 17.8692 16.6351 17.7418 17.4516 17.4911C18.2513 17.2456 18.9198 16.9619 19.4396 16.647C19.9109 16.3609 20.3158 16.113 20.6772 15.889C20.8548 15.7792 20.9644 15.7196 21.026 15.6885C21.5314 15.7014 21.9967 15.7866 22.411 15.9423C22.8584 16.1106 23.2384 16.3352 23.5398 16.6092C23.8621 16.9021 24.1541 17.2658 24.408 17.6903C24.6741 18.1349 24.8888 18.597 25.0459 19.063C25.21 19.55 25.348 20.0871 25.456 20.6592C25.5654 21.2399 25.6396 21.7857 25.6757 22.2815V22.2819C25.713 22.7861 25.7318 23.3132 25.732 23.8488C25.7318 24.8757 25.4265 25.6511 24.7982 26.2191Z" fill="white"/>
</g>
<defs>
<clipPath id="clip0">
<rect width="30" height="28.5" fill="white" transform="translate(0 0.25)"/>
</clipPath>
</defs>
</svg>
